<svg width="224" height="46" viewBox="0 0 224 46" fill="none" xmlns="http://www.w3.org/2000/svg">
<path d="M216.318 8.9133L208.675 17.5012V8.9133H203.144V30.5952H208.675V21.4681L216.856 30.5952H224V30.5949L213.937 19.2342L223.27 8.9133H216.318Z" fill="#EF3124"/>
<path d="M193.391 17.0006H185.747V8.9133H180.216V30.5952H185.747V22.0455H193.391V30.5952H198.922V8.9133H193.391V17.0006Z" fill="#EF3124"/>
<path d="M32.8407 20.659C32.7085 24.7018 32.188 25.5116 29.9219 25.5116V30.595H30.7667C36.4199 30.595 37.7794 27.6678 37.9878 21.16L38.2181 13.9582H43.5187V30.595H49.0498V8.91337H33.225L32.8407 20.659Z" fill="#EF3124"/>
<path d="M62.3744 25.8198H58.8023V20.3126H62.3744C64.295 20.3126 65.4473 21.16 65.4473 22.9697C65.4473 24.9339 64.3334 25.8198 62.3744 25.8198ZM62.7969 15.4986H58.8023V8.91306H53.2715V30.595H62.874C68.9041 30.595 71.055 26.6669 71.055 22.9697C71.055 18.1946 68.0593 15.4986 62.7969 15.4986Z" fill="#EF3124"/>
<path d="M89.0688 25.8585V13.6119C92.1416 14.0355 94.0619 16.3461 94.0619 19.7351C94.0619 23.124 92.1416 25.4347 89.0688 25.8585ZM83.5379 25.8585C80.4651 25.4347 78.5445 23.124 78.5445 19.7351C78.5445 16.3461 80.4651 14.0355 83.5379 13.6119V25.8585ZM89.0688 8.41262V0.36351H83.5379V8.41262C77.2004 8.95175 72.9365 13.4578 72.9365 19.7351C72.9365 26.0509 77.2004 30.5569 83.5379 31.0957V39.2607H89.0688V31.0957C95.4063 30.5951 99.6699 26.0509 99.6699 19.7351C99.6699 13.4193 95.4063 8.91322 89.0688 8.41262Z" fill="#EF3124"/>
<path d="M114.88 22.5078C114.88 25.0111 113.114 26.4361 110.809 26.4361C108.812 26.4361 107.237 25.7043 107.237 23.5475C107.237 21.4295 108.965 21.083 110.463 21.083H114.88V22.5078ZM120.411 23.9328V16.6543C120.411 11.3397 117.031 7.98872 111.347 7.98872C105.47 7.98872 102.359 11.5321 102.09 15.2293H107.698C107.89 14.4204 108.735 13.0342 111.347 13.0342C113.498 13.0342 114.88 14.0354 114.88 16.6543H109.388C104.471 16.6543 101.552 19.2344 101.552 23.5475C101.552 28.0535 104.745 31.1345 109.349 31.1345C112.725 31.1345 114.599 29.5347 115.418 28.3229C116.148 29.7862 117.761 30.5951 119.873 30.5951H121.794V25.5887C120.795 25.5887 120.411 25.1267 120.411 23.9328Z" fill="#EF3124"/>
<path d="M143.842 25.1266H137.927V17.2701H143.842C146.915 17.2701 148.643 18.6952 148.643 21.1982C148.643 23.7786 146.915 25.1266 143.842 25.1266ZM144.111 11.9937H137.927V5.8706H152.254V0.363354H132.127V30.595H144.111C150.756 30.595 154.558 27.2831 154.558 21.1982C154.558 15.4604 150.756 11.9937 144.111 11.9937Z" fill="#EF3124"/>
<path d="M170.191 22.5078C170.191 25.0111 168.424 26.4361 166.119 26.4361C164.122 26.4361 162.547 25.7043 162.547 23.5475C162.547 21.4295 164.276 21.083 165.773 21.083H170.191V22.5078ZM175.722 23.9328V16.6543C175.722 11.3397 172.342 7.98872 166.657 7.98872C160.78 7.98872 157.669 11.5321 157.4 15.2293H163.008C163.2 14.4204 164.045 13.0342 166.657 13.0342C168.808 13.0342 170.191 14.0354 170.191 16.6543H164.698C159.781 16.6543 156.862 19.2344 156.862 23.5475C156.862 28.0535 160.056 31.1345 164.66 31.1345C168.036 31.1345 169.91 29.5347 170.728 28.3229C171.458 29.7862 173.071 30.5951 175.184 30.5951H177.104V25.5887C176.106 25.5887 175.722 25.1267 175.722 23.9328Z" fill="#EF3124"/>
<path d="M29.5756 46H0V39.838H29.5756V46Z" fill="#EF3124"/>
<path d="M10.5624 19.1572L14.7106 6.79505H14.864L18.782 19.1572H10.5624ZM20.1634 4.51306C19.3201 1.99154 18.3483 -7.82013e-05 15.0178 -7.82013e-05C11.6876 -7.82013e-05 10.6531 1.98353 9.76548 4.51306L0.614258 30.595H6.6831L8.79551 24.3948H20.472L22.4307 30.595H28.8839L20.1634 4.51306Z" fill="#EF3124"/>
</svg>
