<svg width="178" height="30" viewBox="0 0 178 30" fill="none" xmlns="http://www.w3.org/2000/svg">
<path fill-rule="evenodd" clip-rule="evenodd" d="M22.5254 8C23.3446 8 24 8.6979 24 9.57027V18.185C24 21.5436 22.2591 24.6187 19.4942 26.2108L13.1862 29.8093C12.4693 30.2237 11.5682 29.9402 11.1791 29.1769C10.7899 28.4135 11.0562 27.4539 11.773 27.0395L18.0811 23.441C19.9039 22.3942 21.0303 20.3877 21.0303 18.185V9.57027C21.0303 8.6979 21.6857 8 22.5049 8H22.5254Z" fill="#FF1037"/>
<path fill-rule="evenodd" clip-rule="evenodd" d="M22.5236 1C23.3438 1 24 1.70665 24 2.58997V9.63439C24 12.8806 22.4005 15.9059 19.8168 17.5621L13.2344 21.78C12.5372 22.2216 11.6349 21.9787 11.2043 21.2279C10.7942 20.4771 11.0198 19.5054 11.717 19.0417L18.2994 14.8239C20.0014 13.7418 21.0472 11.7543 21.0472 9.63439V2.58997C21.0472 1.70665 21.7033 1 22.5236 1Z" fill="#00AFEC"/>
<path fill-rule="evenodd" clip-rule="evenodd" d="M3.072 3.1888H22.464C23.3173 3.1888 24 2.48018 24 1.5944C24 0 24 0 22.464 0H2.77333C0 0 0 0 0 2.87878V18.0034C0 21.4137 1.81333 24.536 4.69333 26.1526L11.264 29.8064C12.0107 30.2271 12.9493 29.9393 13.3547 29.1642C13.76 28.3892 13.4827 27.4148 12.736 26.9941L6.16533 23.3402C4.26667 22.2773 3.09333 20.24 3.09333 18.0034V3.21094L3.072 3.1888Z" fill="#152438"/>
<path fill-rule="evenodd" clip-rule="evenodd" d="M22.526 0C23.3449 0 24 0.708487 24 1.5941C24 4.27306 22.6488 6.19926 21.0315 7.50554C19.4551 8.78967 17.5102 9.58672 15.9543 10.0738C14.7465 10.4502 13.948 11.5572 13.948 12.6642V28.4059C13.948 29.2915 13.2929 30 12.474 30C11.6551 30 11 29.2915 11 28.4059V12.6642C11 9.87454 12.9039 7.72694 15.1354 7.01845C16.5276 6.57565 18.0835 5.91144 19.2504 4.95941C20.3969 4.02952 21.0315 2.94465 21.0315 1.5941C21.0315 0.708487 21.6866 0 22.5055 0H22.526Z" fill="#152438"/>
<path fill-rule="evenodd" clip-rule="evenodd" d="M36 0H51V4.29558H40V25.9977H36V0Z" fill="#152438"/>
<path fill-rule="evenodd" clip-rule="evenodd" d="M56.5 0H63.5L71 26H67L60.9832 4.29785H59.0171L53 26H49L56.5 0Z" fill="#152438"/>
<path fill-rule="evenodd" clip-rule="evenodd" d="M66 20.2979H54.5V16.2979H66V20.2979Z" fill="#152438"/>
<path fill-rule="evenodd" clip-rule="evenodd" d="M77 4.07617V16.2022C79.1093 15.9964 81.1289 15.4499 82.7024 14.4824C84.6475 13.2864 86 11.4118 86 8.29778C86 6.83473 85.4677 6.00581 84.738 5.43614C83.9121 4.79135 82.6822 4.37463 81.2181 4.16614C79.7829 3.96178 78.3108 3.98331 77.1716 4.06347C77.1134 4.06757 77.0562 4.07181 77 4.07617ZM77 20.2178C79.6608 20.0024 82.4609 19.3266 84.7976 17.8898C87.8525 16.0114 90 12.8859 90 8.29778C90 5.61195 88.9073 3.61642 87.1995 2.28317C85.5879 1.02505 83.5678 0.460381 81.7819 0.206087C79.9671 -0.0523268 78.1892 -0.0180277 76.8909 0.0733408C76.2353 0.119471 75.6871 0.181269 75.2985 0.23224C75.1039 0.257765 74.9485 0.280682 74.8387 0.297746C74.7838 0.306282 74.7403 0.313364 74.7089 0.318589L74.671 0.324989L74.6591 0.327053L74.6532 0.328074C74.6532 0.328074 74.6519 0.32831 75 2.29778L74.6519 0.32831L73 0.620286V26H77V20.2178Z" fill="#152438"/>
<path fill-rule="evenodd" clip-rule="evenodd" d="M88.5 22H111V29H107V26H92.5V29H88.5V22Z" fill="#152438"/>
<path fill-rule="evenodd" clip-rule="evenodd" d="M94.5017 0H108.502V23.5H104.502V4H98.3881C98.3053 4.94367 98.1624 6.21582 97.9156 7.80667C97.337 11.5354 96.1878 17.0125 93.9058 24.112L90.0977 22.888C92.3157 15.9875 93.4165 10.7146 93.9629 7.19333C94.2361 5.43251 94.3708 4.10908 94.4372 3.23852C94.4704 2.80322 94.4865 2.48108 94.4944 2.27403C94.4983 2.17051 94.5001 2.09575 94.501 2.05L94.5017 2.00315V1.99673V0Z" fill="#152438"/>
<path fill-rule="evenodd" clip-rule="evenodd" d="M133 0.000335693V26H129V7.72787L117.083 26H114V0H118V17.2721L129.264 0L133 0.000335693Z" fill="#152438"/>
<path fill-rule="evenodd" clip-rule="evenodd" d="M143.621 21.6834L135.5 0H140L147.38 20.3164L143.621 21.6834Z" fill="#152438"/>
<path fill-rule="evenodd" clip-rule="evenodd" d="M148.319 19.3308C148.771 18.4021 149.365 16.6897 149.973 14.7997C150.613 12.8059 151.981 8.18521 151.981 8.18521L154.5 0L150 0.000209808C150 0.000209808 148.974 4.20842 148.141 7.06521C147.487 9.308 146.789 11.632 146.164 13.5757C145.521 15.579 145.003 17.0184 144.709 17.6058L144.679 17.6674L144.652 17.731C143.737 19.9277 141.798 21.0265 139.789 21.5695C138.799 21.8371 137.862 21.9469 137.169 21.9881C136.825 22.0085 136.548 22.0117 136.364 22.0101C136.272 22.0093 136.204 22.0073 136.163 22.0057C136.142 22.005 136.128 22.0043 136.121 22.004C136.121 22.004 136.123 22.0041 135.998 24.0002C135.873 25.9963 135.875 25.9964 135.875 25.9964L135.881 25.9968L135.891 25.9974L135.921 25.999C135.945 26.0001 135.976 26.0016 136.014 26.003C136.091 26.0058 136.198 26.0087 136.329 26.0099C136.593 26.0122 136.961 26.0075 137.406 25.9811C138.291 25.9285 139.51 25.7883 140.832 25.4309C143.434 24.7278 146.724 23.0905 148.319 19.3308Z" fill="#152438"/>
<path fill-rule="evenodd" clip-rule="evenodd" d="M157 0H161L167.5 13.8461L174 0H178V26H174V9.90388L167.5 24.1539L161 10V26H157V0Z" fill="#152438"/>
</svg>
